<svg width="127" height="12" viewBox="0 0 127 12" fill="none" xmlns="http://www.w3.org/2000/svg">
<path d="M3.31751 0.412287C4.66242 0.412287 5.67563 0.681055 6.35716 1.21859C7.03868 1.75613 7.38009 2.51959 7.38139 3.50897C7.38554 3.94954 7.28705 4.38502 7.09375 4.78075C6.90039 5.16793 6.62356 5.5072 6.28331 5.77402C5.90318 6.06989 5.47153 6.29245 5.0103 6.43036C4.46095 6.593 3.89028 6.67178 3.31751 6.66407H1.18936V10.8709H0.355591V0.412287H3.31751ZM3.31751 6.06032C3.77836 6.06694 4.2374 6.00123 4.67796 5.86556C5.04736 5.75356 5.39225 5.57249 5.69442 5.33192C5.96406 5.11581 6.18245 4.84241 6.33384 4.53145C6.48248 4.21159 6.55563 3.86172 6.54762 3.50897C6.54762 2.70396 6.27812 2.08527 5.73912 1.65291C5.20012 1.22054 4.39292 1.00371 3.31751 1.00241H1.18936V6.05253L3.31751 6.06032Z" fill="#2797BA"/>
<path d="M15.274 1.68212C15.2547 1.72109 15.2247 1.75373 15.1875 1.77616C15.1503 1.79859 15.1075 1.80989 15.0641 1.80871C14.9611 1.79389 14.8656 1.74606 14.792 1.67238C14.6504 1.55908 14.5003 1.45685 14.3431 1.3666C14.1186 1.24007 13.8815 1.13758 13.6356 1.06083C12.9353 0.865684 12.1941 0.873111 11.4978 1.08226C11.207 1.17676 10.9375 1.32764 10.7048 1.52631C10.4999 1.70263 10.3355 1.92139 10.2231 2.16752C10.1107 2.41364 10.0529 2.68127 10.0537 2.95195C10.0411 3.26415 10.1275 3.57234 10.3006 3.83226C10.4751 4.06987 10.6968 4.26879 10.9516 4.41654C11.2411 4.58696 11.5488 4.72416 11.869 4.82554C12.213 4.93655 12.5647 5.04756 12.9262 5.15468C13.2877 5.2618 13.6395 5.38255 13.9835 5.51304C14.3097 5.63515 14.6181 5.8002 14.9008 6.00383C15.1673 6.19729 15.3893 6.44565 15.5519 6.73223C15.7276 7.06248 15.8134 7.43327 15.8007 7.80731C15.803 8.23289 15.7184 8.65444 15.5519 9.04598C15.3895 9.43034 15.1454 9.77461 14.8367 10.0548C14.5019 10.3546 14.1107 10.5844 13.6862 10.7307C13.1863 10.9037 12.6601 10.9875 12.1313 10.978C11.4652 10.9941 10.8031 10.87 10.1878 10.6138C9.65079 10.3743 9.16455 10.0338 8.75546 9.61078L8.98285 9.28553C9.0099 9.25161 9.04419 9.2242 9.08321 9.20533C9.12223 9.18645 9.16497 9.17659 9.2083 9.17647C9.28104 9.18307 9.34947 9.21393 9.40265 9.26411L9.67669 9.48224C9.78552 9.56793 9.91509 9.66142 10.0654 9.76269C10.2311 9.87258 10.4068 9.96649 10.5901 10.0431C10.8124 10.1366 11.0427 10.2096 11.2781 10.2613C11.5679 10.3245 11.8639 10.3546 12.1605 10.3509C12.5734 10.3547 12.9841 10.2888 13.3752 10.1561C13.7061 10.0455 14.0123 9.87157 14.277 9.64389C14.5197 9.42884 14.7121 9.16286 14.8406 8.86485C14.9703 8.56287 15.0364 8.23734 15.0349 7.90858C15.0383 7.5905 14.9455 7.27885 14.7687 7.01464C14.5975 6.76918 14.3745 6.5644 14.1157 6.41478C13.826 6.24629 13.5182 6.11105 13.1983 6.01162C12.8543 5.9045 12.5026 5.79739 12.1411 5.69417C11.7796 5.59094 11.4278 5.47603 11.0857 5.34749C10.7583 5.22694 10.449 5.06179 10.1665 4.8567C9.87261 4.64569 9.63639 4.36408 9.4795 4.03772C9.32261 3.71137 9.25007 3.35073 9.26855 2.98895C9.2678 2.64026 9.34204 2.2955 9.48622 1.97815C9.63529 1.64802 9.85334 1.35379 10.1256 1.11536C10.4348 0.852124 10.7909 0.64991 11.1751 0.5194C11.6294 0.36225 12.1076 0.285795 12.5881 0.293479C13.1323 0.284844 13.6738 0.372532 14.1876 0.552509C14.6653 0.728858 15.1037 0.997518 15.4781 1.34323L15.274 1.68212Z" fill="#2797BA"/>
<path d="M19.2076 10.8709H18.3661V0.412287H19.1999L19.2076 10.8709Z" fill="#2797BA"/>
<path d="M30.8551 9.11025C30.9062 9.10891 30.9558 9.1278 30.9931 9.16283L31.3157 9.48029C31.0767 9.71265 30.8164 9.92197 30.5383 10.1055C30.2558 10.2945 29.9542 10.4531 29.6385 10.5787C29.2853 10.7154 28.9194 10.8166 28.5462 10.8806C28.1143 10.9553 27.6765 10.9912 27.2382 10.9877C26.4936 10.9941 25.7542 10.862 25.0576 10.5982C24.4211 10.3605 23.8407 9.99314 23.3531 9.51924C22.87 9.04111 22.4937 8.46554 22.2492 7.83068C21.9808 7.12795 21.8489 6.3803 21.8605 5.62794C21.8486 4.88787 21.982 4.15268 22.2531 3.46416C22.5102 2.82881 22.896 2.25384 23.3862 1.7756C23.8887 1.2951 24.4839 0.922629 25.1353 0.681049C25.8551 0.415394 26.617 0.283397 27.384 0.291529C28.0914 0.279962 28.7954 0.393357 29.4635 0.626515C30.0615 0.844264 30.6191 1.16019 31.1136 1.56136L30.8629 1.89245C30.8401 1.92197 30.8105 1.94552 30.7767 1.96112C30.7428 1.97672 30.7057 1.9839 30.6685 1.98204C30.5508 1.95647 30.4416 1.90078 30.3517 1.82039C30.1607 1.68411 29.9585 1.56423 29.7473 1.46203C29.4355 1.3119 29.1101 1.19191 28.7755 1.10368C28.3219 0.98634 27.8544 0.931303 27.3859 0.940078C26.7392 0.932934 26.0966 1.04313 25.4891 1.26533C24.9293 1.46515 24.4196 1.78442 23.9951 2.20106C23.5706 2.6177 23.2415 3.12177 23.0305 3.6784C22.5641 4.95014 22.5641 6.34665 23.0305 7.61839C23.2487 8.17215 23.5797 8.67427 24.0023 9.09272C24.4187 9.49691 24.9135 9.81112 25.456 10.0159C26.0342 10.2343 26.6476 10.3439 27.2654 10.3392C27.6322 10.3423 27.9987 10.3169 28.3616 10.2632C28.6635 10.2191 28.9603 10.1454 29.2478 10.0431C29.5104 9.94738 29.7629 9.82605 30.0019 9.68089C30.2436 9.53111 30.4736 9.36314 30.6899 9.17841C30.7155 9.15963 30.7428 9.14333 30.7715 9.12972C30.7976 9.11707 30.8261 9.11042 30.8551 9.11025Z" fill="#2797BA"/>
<path d="M43.5132 5.63769C43.5259 6.38886 43.3939 7.13544 43.1245 7.83652C42.8747 8.47075 42.4938 9.04487 42.007 9.52119C41.5114 9.99634 40.9232 10.3637 40.2792 10.6002C38.8431 11.1091 37.2763 11.1091 35.8402 10.6002C35.1974 10.3636 34.6105 9.99625 34.1163 9.52119C33.6283 9.04547 33.2467 8.47123 32.9969 7.83652C32.4682 6.42118 32.4682 4.86199 32.9969 3.44664C33.2439 2.81066 33.6228 2.23446 34.1085 1.75613C34.6035 1.28118 35.1901 0.912675 35.8324 0.673269C37.2683 0.163041 38.8356 0.163041 40.2714 0.673269C40.9167 0.910043 41.5058 1.27882 42.0011 1.75613C42.4873 2.23532 42.8679 2.81117 43.1187 3.44664C43.3898 4.1447 43.5238 4.88869 43.5132 5.63769ZM42.6561 5.63769C42.6671 4.96789 42.5551 4.30178 42.3257 3.67256C42.1215 3.11783 41.8015 2.61318 41.387 2.19239C40.9726 1.78275 40.4756 1.46666 39.9294 1.26534C38.7169 0.837094 37.3947 0.837094 36.1823 1.26534C35.6298 1.46589 35.1278 1.78535 34.7118 2.20125C34.2957 2.61715 33.9757 3.11937 33.7743 3.67256C33.3233 4.94501 33.3233 6.33426 33.7743 7.60671C33.9815 8.16061 34.3041 8.66389 34.7207 9.08298C35.1366 9.49169 35.6349 9.80646 36.1823 10.0061C37.3956 10.4294 38.716 10.4294 39.9294 10.0061C40.4757 9.80673 40.9728 9.49189 41.387 9.08298C41.8006 8.66296 42.1205 8.15979 42.3257 7.60671C42.5569 6.97652 42.6702 6.30903 42.66 5.63769H42.6561Z" fill="#2797BA"/>
<path d="M57.8679 0.297365V10.756H57.1294V1.84181C57.1296 1.70574 57.138 1.56981 57.1547 1.43476L52.5349 8.74604C52.5036 8.80628 52.4561 8.85648 52.3976 8.89092C52.3392 8.92535 52.2723 8.94264 52.2045 8.9408H52.0705C52.0027 8.94241 51.9359 8.92503 51.8775 8.89062C51.8192 8.85621 51.7715 8.80613 51.7401 8.74604L46.9959 1.42113C47.0126 1.56074 47.021 1.70121 47.0212 1.84181V10.756H46.2749V0.297365H46.858C46.9196 0.2957 46.9811 0.302915 47.0406 0.318789C47.0965 0.34354 47.1434 0.385048 47.1747 0.437593L51.9072 7.71187C51.9926 7.85224 52.0648 8.00024 52.1229 8.15397C52.1579 8.07607 52.1929 7.99816 52.2318 7.92221C52.2682 7.84714 52.3091 7.7743 52.3542 7.70408L56.9642 0.437593C56.9952 0.384026 57.0431 0.342251 57.1003 0.318789C57.1637 0.302333 57.2291 0.295118 57.2946 0.297365H57.8679Z" fill="black"/>
<path d="M71.7116 10.756H71.0547C70.9854 10.7597 70.9169 10.7398 70.8603 10.6995C70.8094 10.6631 70.7697 10.6132 70.7457 10.5554L69.3677 7.51907H63.6091L62.2311 10.5554C62.2077 10.613 62.1678 10.6624 62.1165 10.6975C62.0591 10.7364 61.9913 10.7568 61.9221 10.756H61.2749L66.0754 0.29738H66.913L71.7116 10.756ZM69.115 6.95621L66.7265 1.67238C66.633 1.47066 66.5525 1.26314 66.4855 1.0511C66.4524 1.1699 66.4175 1.28092 66.3786 1.38804C66.3397 1.49515 66.297 1.58279 66.2542 1.68017L63.8676 6.95621H69.115Z" fill="black"/>
<path d="M82.7138 0.297374V10.756H82.3076C82.247 10.7574 82.1868 10.7461 82.1308 10.7229C82.0778 10.6946 82.0314 10.6555 81.9947 10.6079L74.3781 1.53215C74.3948 1.67176 74.4032 1.81223 74.4033 1.95283V10.756H73.659V0.297374H74.0807C74.1414 0.294496 74.202 0.303086 74.2595 0.322692C74.3126 0.350814 74.3589 0.389998 74.3956 0.437601L82.0005 9.49197C81.9839 9.35237 81.9754 9.2119 81.9753 9.07129V0.297374H82.7138Z" fill="black"/>
<path d="M95.1017 10.756H94.4468C94.3776 10.7588 94.3094 10.739 94.2524 10.6995C94.2026 10.662 94.1632 10.6124 94.1378 10.5554L92.7598 7.51907H86.9992L85.6232 10.5554C85.599 10.6131 85.5585 10.6626 85.5066 10.6976C85.4496 10.737 85.3816 10.7574 85.3123 10.756H84.6631L89.4656 0.29738H90.3032L95.1017 10.756ZM92.5052 6.95622L90.1186 1.67238C90.0284 1.47042 89.9511 1.26291 89.8873 1.0511C89.8543 1.1699 89.8193 1.28092 89.7804 1.38804C89.7436 1.48764 89.7014 1.58517 89.6541 1.68018L87.2577 6.95622H92.5052Z" fill="black"/>
<path d="M106.421 6.00969V9.72765C105.838 10.0962 105.208 10.3826 104.547 10.5787C103.819 10.7837 103.065 10.8828 102.308 10.8728C101.457 10.8829 100.611 10.7513 99.8031 10.4833C99.1057 10.2545 98.4613 9.88758 97.9082 9.40434C97.3858 8.93951 96.9752 8.36224 96.7071 7.71578C96.4189 7.01785 96.276 6.26828 96.2873 5.51305C96.2762 4.75984 96.4163 4.01209 96.6993 3.31421C96.9609 2.67176 97.3626 2.09613 97.8751 1.62954C98.4133 1.14804 99.0434 0.780978 99.7273 0.550574C100.516 0.283041 101.344 0.151337 102.176 0.161056C102.59 0.158859 103.004 0.186194 103.414 0.242855C103.771 0.298952 104.122 0.384949 104.464 0.499938C104.779 0.601667 105.084 0.73205 105.375 0.889457C105.66 1.0467 105.931 1.22645 106.188 1.42699L105.964 1.75614C105.928 1.81249 105.871 1.85244 105.806 1.86737C105.741 1.88231 105.673 1.87104 105.616 1.83599C105.489 1.78191 105.369 1.71259 105.259 1.62954C105.057 1.4962 104.844 1.38271 104.621 1.29066C104.295 1.15513 103.958 1.05016 103.612 0.977098C103.132 0.873792 102.642 0.826088 102.151 0.834923C101.447 0.825208 100.747 0.935861 100.081 1.16212C99.4974 1.35964 98.9607 1.67592 98.5048 2.09112C98.0661 2.50395 97.7237 3.00869 97.502 3.56935C97.2585 4.19324 97.139 4.85881 97.1502 5.52863C97.1385 6.20545 97.258 6.87811 97.502 7.50934C97.7255 8.0779 98.0743 8.58853 98.5223 9.00314C98.9911 9.42629 99.5433 9.74611 100.143 9.94188C100.837 10.1673 101.562 10.2771 102.291 10.2671C102.616 10.2691 102.94 10.2496 103.263 10.2087C103.548 10.1707 103.831 10.1148 104.11 10.0412C104.375 9.97067 104.635 9.88151 104.887 9.77439C105.14 9.66922 105.397 9.55042 105.665 9.41603V6.59396H103.401C103.346 6.5955 103.292 6.57757 103.249 6.54333C103.23 6.52952 103.215 6.51165 103.204 6.49108C103.193 6.4705 103.187 6.44775 103.187 6.42452V6.00969H106.421Z" fill="black"/>
<path d="M116.288 10.1308L116.27 10.7599H109.239V0.29738H116.27V0.924507H110.1V5.15274H115.242V5.76623H110.1V10.1308H116.288Z" fill="black"/>
<path d="M126.95 10.756H126.231C126.151 10.7587 126.071 10.7448 125.996 10.7151C125.923 10.681 125.861 10.6287 125.815 10.5632L122.043 6.3213C122.001 6.27131 121.955 6.22444 121.907 6.18107C121.859 6.14107 121.805 6.10945 121.747 6.08758C121.68 6.06417 121.61 6.04849 121.539 6.04084C121.442 6.02977 121.344 6.02457 121.246 6.02526H119.71V10.756H118.857V0.29738H121.86C123.208 0.29738 124.217 0.530443 124.89 0.996567C125.562 1.46269 125.898 2.1463 125.897 3.04739C125.902 3.42495 125.823 3.79893 125.665 4.14194C125.508 4.47526 125.28 4.7708 124.999 5.00861C124.684 5.27086 124.327 5.47706 123.943 5.61821C123.497 5.78507 123.03 5.89182 122.556 5.93567C122.692 6.01259 122.813 6.11431 122.911 6.2356L126.95 10.756ZM121.743 5.45656C122.214 5.46216 122.684 5.40585 123.141 5.28907C123.515 5.19592 123.868 5.03485 124.184 4.81386C124.457 4.61951 124.68 4.36324 124.836 4.06598C124.988 3.76452 125.066 3.4303 125.061 3.09218C125.061 2.3482 124.788 1.79573 124.243 1.43478C123.697 1.07382 122.903 0.893995 121.86 0.895293H119.71V5.45656H121.743Z" fill="black"/>
</svg>
